<?xml version="1.0" encoding="UTF-8"?> <svg xmlns="http://www.w3.org/2000/svg" xmlns:xlink="http://www.w3.org/1999/xlink" id="Layer_1" x="0px" y="0px" viewBox="0 0 512 512" style="enable-background:new 0 0 512 512;" xml:space="preserve" width="512px" height="512px" class=""><g><path style="fill:#F2F2F2;" d="M250.158,510.933C-48.508,417.067,34.692,42.667,35.758,39.467l4.267-19.2l18.133,7.467 c25.6,10.667,51.2,16,77.867,16c64,1.067,108.8-35.2,108.8-35.2L255.492,0l10.667,8.533c0,0,44.8,36.267,109.867,36.267 c25.6,0,52.267-5.333,77.867-16l18.133-7.467l4.267,19.2C477.358,44.8,560.558,419.2,260.825,512h-5.333L250.158,510.933z" data-original="#F2F2F2" class=""></path><path style="fill:#5690F8" d="M454.958,244.267c13.867-81.067,3.2-156.8-2.133-186.667c-25.6,9.6-50.133,13.867-75.733,13.867 c-60.8,0-104.533-25.6-120.533-37.333v210.133L454.958,244.267L454.958,244.267z" data-original="#84DBFF" class="active-path" data-old_color="#84DBFF"></path><path style="fill:#40596B;" d="M255.492,34.133L255.492,34.133c-16,11.733-59.733,37.333-120.533,37.333 c-25.6,0-51.2-4.267-75.733-13.867c-5.333,28.8-14.933,105.6-1.067,186.667h197.333V34.133z" data-original="#40596B" class=""></path><path style="fill:#5690F8" d="M58.158,244.267c16,94.933,66.133,197.333,197.333,240l0,0v-240H58.158z" data-original="#84DBFF" class="active-path" data-old_color="#84DBFF"></path><path style="fill:#40596B;" d="M454.958,244.267H255.492v240C387.758,441.6,437.892,339.2,454.958,244.267z" data-original="#40596B" class=""></path><circle style="fill:#FFD15C;" cx="255.492" cy="244.267" r="126.933" data-original="#FFD15C" class=""></circle><circle style="fill:#F8B64C;" cx="255.492" cy="244.267" r="104.533" data-original="#F8B64C" class=""></circle><path style="fill:#FFD15C;" d="M249.092,298.667c-17.067-1.067-28.8-7.467-38.4-17.067l12.8-18.133 c6.4,6.4,14.933,11.733,25.6,13.867V252.8c-16-4.267-34.133-10.667-34.133-32c0-16,12.8-29.867,34.133-32v-14.933h14.933V188.8 c12.8,1.067,23.467,6.4,33.067,13.867l-12.8,17.067c-5.333-5.333-12.8-8.533-20.267-10.667v22.4c17.067,4.267,35.2,10.667,35.2,32 c0,18.133-11.733,32-35.2,34.133v13.867h-14.933V298.667z M249.092,229.333v-19.2c-7.467,1.067-10.667,4.267-10.667,10.667 C238.425,225.067,242.692,227.2,249.092,229.333z M264.025,257.067V278.4c8.533-2.133,11.733-6.4,11.733-11.733 C276.825,262.4,271.492,259.2,264.025,257.067z" data-original="#FFD15C" class=""></path></g> </svg> 